# xmcd
# Track frame offsets:
# 150
# 17555
# 31751
# 48851
# 64543
# 83335
# 99791
# 119166
# 132693
# 149601
#
# Disc length: 2209 seconds
# Revision: 0
# Processed by: cddbd v1.5.2PL0 Copyright (c) Steve Scherf et al.
# Submitted via: VisiTrax 2.11.3.279 - For more info visit www.synapsa.com
#
DISCID=7d089f0a
DTITLE=Tania Kernaghan - All Australian Girl
DYEAR=2017
DGENRE=Country
TTITLE0=That's A Tradie
TTITLE1=Onto Something
TTITLE2=Happily Ever After
TTITLE3=All Australian Girl
TTITLE4=End Of A Drought
TTITLE5=Kimberley Moon
TTITLE6=Homestead Of My Dreams
TTITLE7=Love's Gonna Find You
TTITLE8=Little Cabin
TTITLE9=Light In The Window
EXTD=
EXTT0=
EXTT1=
EXTT2=
EXTT3=
EXTT4=
EXTT5=
EXTT6=
EXTT7=
EXTT8=
EXTT9=
PLAYORDER=
